<?xml version="1.0" encoding="UTF-8"?>
<svg id="Livello_2" data-name="Livello 2" xmlns="http://www.w3.org/2000/svg" viewBox="0 0 50.32 50.32">
  <defs>
    <style>
      .cls-1 {
        fill: #99c1c0;
      }

      .cls-2 {
        fill: none;
        stroke: #99c1c0;
        stroke-miterlimit: 10;
        stroke-width: 2px;
      }
    </style>
  </defs>
  <g id="Livello_5" data-name="Livello 5">
    <g>
      <circle class="cls-2" cx="25.16" cy="25.16" r="24.16"/>
      <path class="cls-1" d="m31.26,8.46c.71.12,1.3.58,1.88.99s1.1.84,1.62,1.3c1.06.96,2.13,1.87,3.05,2.97s1.64,2.25,2.26,3.5.94,2.59,1.45,3.89c.21.52.65.9,1.24.81.52-.08,1.03-.54.98-1.11-.14-1.6-.83-3.18-1.56-4.6s-1.62-2.73-2.65-3.94-2.17-2.37-3.49-3.18c-.63-.39-1.29-.74-1.97-1.04-.74-.33-1.55-.55-2.21-1.01-.95-.67-1.74,1.23-.6,1.43h0Z"/>
    </g>
  </g>
</svg>