<?xml version="1.0" encoding="UTF-8"?>
<svg id="Livello_2" data-name="Livello 2" xmlns="http://www.w3.org/2000/svg" viewBox="0 0 363.79 300.58">
  <defs>
    <style>
      .cls-1, .cls-2, .cls-3, .cls-4, .cls-5, .cls-6, .cls-7 {
        stroke-miterlimit: 10;
      }

      .cls-1, .cls-2, .cls-3, .cls-4, .cls-6 {
        stroke-width: 3px;
      }

      .cls-1, .cls-2, .cls-5 {
        stroke: #f5e5a3;
      }

      .cls-1, .cls-2, .cls-7 {
        stroke-linecap: round;
      }

      .cls-1, .cls-5, .cls-6 {
        fill: #f7eaab;
      }

      .cls-2, .cls-3, .cls-7 {
        fill: none;
      }

      .cls-3, .cls-6 {
        stroke: #f1d734;
      }

      .cls-8 {
        fill: #f4f4f4;
      }

      .cls-9 {
        fill: #e2e2e1;
      }

      .cls-10 {
        fill: #d7d7d7;
      }

      .cls-11 {
        fill: #23aabc;
      }

      .cls-12 {
        fill: #99c1c0;
      }

      .cls-13 {
        fill: #258b93;
      }

      .cls-4 {
        fill: #fecb39;
        opacity: .97;
        stroke: #eab52e;
      }

      .cls-7 {
        stroke: #1e1e1c;
        stroke-width: 5px;
      }
    </style>
  </defs>
  <g id="Livello_15" data-name="Livello 15">
    <path class="cls-9" d="m53.63,125.72c-1.61,2.98-.59,6.52,1.85,8.72s5.68,2.92,8.51,4.51c5.35,3.01,7.29,9.59,8.22,15.25.62,3.77.65,7.54.28,11.33-.31,3.19-.31,6.27.12,9.45.76,5.74,2.57,11.28,5.24,16.41,5.26,10.13,14,18.62,24.53,23.14,3.06,1.32,6.13,2.13,9.48,2.22,2.97.08,5.91-.35,8.86-.59s6.14-.25,9.1.74,5.73,3.13,8.06,5.34c5.43,5.16,9.33,11.65,14.33,17.19s11.57,9.85,19.27,11.08c1.01.16,2.01-.26,2.31-1.31.25-.89-.31-2.15-1.31-2.31-6.67-1.07-12.16-4.32-16.76-9.19s-7.97-10.23-12.27-15.08-9.32-9.1-15.73-10.08c-5.96-.91-11.88,1.01-17.83.32-5.47-.63-10.84-3.86-15.16-7.11s-8.09-7.34-11.06-11.87-5.29-9.74-6.56-15.13c-.62-2.61-1-5.26-1.11-7.94-.14-3.49.59-6.94.52-10.44-.13-6.91-1.46-14.72-5.76-20.35-2.24-2.93-5.09-4.55-8.44-5.95-2.25-.94-7.21-3.19-5.43-6.47,1.15-2.12-2.09-4.02-3.24-1.89h0Z"/>
    <g>
      <path class="cls-11" d="m89.33,90.81c9.31-13.38,15.33-29.78,13.2-45.95-2.13-16.08-12.68-30.8-27.22-37.98C60.76-.3,42.66.27,28.6,8.36,6.7,20.95-2.52,49.94,3.85,74.38c3.29,12.6,10.16,24.01,19.02,33.48,8.25,8.82,19.29,20.54,32.43,17.36,7.9-1.91,10.5-7.19,14.99-12.91,5.92-7.54,13.48-13.51,19.04-21.51Z"/>
      <path class="cls-13" d="m90.94,91.76c7.42-10.71,12.75-23.16,13.73-36.26.89-11.85-2.35-23.72-9.17-33.45S79.09,5.22,67.81,2C55.8-1.44,42.61-.41,31.28,4.86,11.55,14.03.66,35.65.03,56.75c-.73,24.26,12.84,45.92,30.57,61.48,4.2,3.69,8.95,7.05,14.41,8.58s11.49.91,16.35-2.03c4.44-2.69,7.13-7.15,10.25-11.14,4.05-5.18,8.92-9.63,13.33-14.47,2.14-2.35,4.17-4.81,6-7.41,1.39-1.98-1.86-3.86-3.24-1.89-3.58,5.1-8.07,9.44-12.37,13.93-2.12,2.21-4.2,4.47-6.11,6.86-1.57,1.97-2.99,4.05-4.57,6.02-3.15,3.94-7.13,6.74-12.3,7.15s-9.95-1.58-14.16-4.4-8.2-6.76-11.84-10.59c-3.99-4.2-7.75-8.55-10.94-13.4-6.17-9.36-10.49-20.12-11.44-31.35-1.63-19.34,5.76-40.47,22.07-51.89C35.45,5.62,47.12,2.86,58.5,4s21.55,6.3,29.25,14.43,12.18,17.92,13.13,28.56c1.09,12.28-2.5,24.5-8.39,35.19-1.46,2.64-3.06,5.2-4.78,7.68-1.38,1.99,1.87,3.87,3.24,1.89Z"/>
    </g>
  </g>
  <g id="Livello_8" data-name="Livello 8">
    <path class="cls-12" d="m205.41,214.66c-19.86-7.31-41.38-14.58-62.7-9.31-16.7,4.13-31.23,14.58-48.44,16.95-11.95,1.64-24.19-.54-35.99-2.41-1.01-.16-2.01.26-2.31,1.31-.25.89.31,2.15,1.31,2.31,10.81,1.72,21.89,3.67,32.87,2.95,8.78-.58,17.12-3.08,25.2-6.46s15.43-7.07,23.52-9.64c10.01-3.19,20.42-3.67,30.8-2.15,11.99,1.76,23.42,5.91,34.74,10.08,2.27.84,3.25-2.79,1-3.62h0Z"/>
    <path class="cls-12" d="m337.85,230.19c-19.86-7.31-41.38-14.58-62.7-9.31-16.7,4.13-31.23,14.58-48.44,16.95-11.95,1.64-24.19-.54-35.99-2.41-1.01-.16-2.01.26-2.31,1.31-.25.89.31,2.15,1.31,2.31,10.81,1.72,21.89,3.67,32.87,2.95,8.78-.58,17.12-3.08,25.2-6.46,7.82-3.28,15.43-7.07,23.52-9.64,10.01-3.19,20.42-3.67,30.8-2.15,11.99,1.76,23.42,5.91,34.74,10.08,2.27.84,3.25-2.79,1-3.62h0Z"/>
    <path class="cls-6" d="m205.37,176.72c-5.34,3.06-12.09,2.51-17.88.44s-11-5.5-16.55-8.15-11.81-4.56-17.83-3.27c-3.31.71-6.96,2.3-9.84.53-3.82-2.34-2.71-8.11-4.26-12.31-.49-1.32-1.59-2.69-2.99-2.53-.6.07-1.14.42-1.62.78-7.05,5.18-9.86,14.25-11.82,22.78-1.17,5.1-2.19,10.24-2.63,15.45-1.13,13.22,1.51,26.74,7.54,38.56,2.03,3.99,4.49,7.84,7.85,10.81,3.32,2.93,7.37,4.87,11.2,7.09,5.42,3.14,10.5,6.89,16.17,9.56,12.59,5.93,27.08,6.09,40.98,5.33,12.63-.69,25.49-2.12,36.98-7.41s21.54-15.05,24.3-27.4c.75-3.36.95-6.82,1.15-10.26.31-5.26.52-10.91-2.24-15.4-2.11-3.43-5.78-5.82-7.33-9.54-2.15-5.15.4-10.95,2.91-15.94-11.3-4.62-24.15-.04-36.32-1.09-5.88-.51-12.02-1.28-17.74,2Z"/>
    <path class="cls-5" d="m166.84,235.89l-2.1.74c-.34,3.02,1.29,6.02,3.62,7.98s5.28,3.02,8.22,3.78c9.73,2.53,20.19,2.15,29.71-1.08,1.9-.64,3.77-1.4,5.63-2.15,1.64-.66,3.29-1.33,4.76-2.32,1.83-1.24,3.31-2.93,4.59-4.73,5.07-7.16,7.16-16.43,5.33-25.01-.5-2.34-1.27-4.61-2.16-6.84-.79-1.98-1.69-3.95-3.08-5.56-2.23-2.58-5.56-4.03-8.94-4.51s-6.82-.06-10.17.59c-3.91.75-7.76,1.82-11.5,3.18-2.19.8-4.36,1.7-6.62,2.29-6.03,1.56-12.6.74-18.19-2-2.54-1.25-4.9-2.87-7.53-3.92s-5.7-1.46-8.25-.23c-.48.23-.96.54-1.22,1.02-.23.42-.26.92-.26,1.4-.04,3.58.88,7.16,2.63,10.28.63,1.12,1.36,2.18,2.18,3.17,5.91,7.19,15.87,10.26,25.14,9.33"/>
    <path class="cls-1" d="m226.54,213.22c-.5-2.34-1.27-4.61-2.16-6.84-.79-1.98-1.69-3.95-3.08-5.56-2.23-2.58-5.56-4.03-8.94-4.51-3.38-.48-6.82-.06-10.17.59-3.91.75-7.76,1.82-11.5,3.18-2.19.8-4.36,1.7-6.62,2.29-6.03,1.56-12.6.74-18.19-2-2.54-1.25-4.9-2.87-7.53-3.92s-5.7-1.46-8.25-.23c-.48.23-.96.54-1.22,1.02-.23.42-.26.92-.26,1.4-.04,3.58.88,7.16,2.63,10.28.33.59.7,1.17,1.09,1.72-1.56,1.19-2.34,3.2-2.41,5.17-.08,2.01.49,3.99,1.16,5.89,1.47,4.18,3.54,8.31,6.92,11.17,3.27,2.77,4.04,2.98,7.52,3.26-1.67.38-.74,3.31-.33,4.35.64,1.66,1.75,3.13,3.1,4.26,2.33,1.96,5.28,3.02,8.22,3.78,9.73,2.53,20.19,2.15,29.71-1.08,1.9-.64,3.77-1.4,5.63-2.15,1.64-.66,3.29-1.33,4.76-2.32,1.83-1.24,3.31-2.93,4.59-4.73,5.07-7.16,7.16-16.43,5.33-25.01Z"/>
    <path class="cls-2" d="m152.46,210.54c-1.63,1.18-2.45,3.25-2.52,5.26s.49,3.99,1.16,5.89c1.47,4.18,3.54,8.31,6.92,11.17,3.69,3.13,4.18,2.99,9.01,3.38s8.55.73,13.39.77c1.66.01,4.75-1.41,5.37.13"/>
    <path class="cls-6" d="m166.7,236.16c-.34-.07-.69-.13-1.04-.08-1.85.25-.88,3.31-.46,4.38.64,1.66,1.75,3.13,3.1,4.26,2.33,1.96,5.28,3.02,8.22,3.78,9.73,2.53,20.19,2.15,29.71-1.08,1.9-.64,3.77-1.4,5.63-2.15,1.64-.66,3.29-1.33,4.76-2.32,1.83-1.24,3.17-3.04,4.59-4.73,4.79-5.75,6.83-14.79,5.33-25.01-.35-2.37-1.27-4.61-2.16-6.84-.79-1.98-1.69-3.95-3.08-5.56-2.23-2.58-5.56-4.03-8.94-4.51s-6.82-.06-10.17.59c-3.91.75-7.76,1.82-11.5,3.18-2.19.8-4.36,1.7-6.62,2.29-6.03,1.56-12.6.74-18.19-2-2.54-1.25-4.9-2.87-7.53-3.92s-5.7-1.46-8.25-.23c-.48.23-.96.54-1.22,1.02-.23.42-.26.92-.26,1.4-.04,3.58.88,7.16,2.63,10.28.63,1.12,1.36,2.18,2.18,3.17,5.91,7.19,15.87,10.26,25.14,9.33"/>
    <path class="cls-3" d="m152.46,210.54c-1.63,1.18-2.45,3.25-2.52,5.26s.49,3.99,1.16,5.89c1.47,4.18,3.54,8.31,6.92,11.17,3.69,3.13,4.18,2.99,9.01,3.38,3.01.24,6.02.51,9.04.65,1.48.07,3,0,4.46.05,1.7.07,4.08.56,5.54-.54"/>
    <ellipse class="cls-6" cx="234.39" cy="121.74" rx="66.94" ry="65.19"/>
    <path class="cls-7" d="m265.49,114.78c.26-2.44,1.46-4.77,3.29-6.42,1.12-1.01,2.52-1.79,4.04-1.93,2.17-.19,4.31.99,5.65,2.69s2,3.83,2.32,5.96"/>
    <path class="cls-4" d="m296.25,148.11c5.66,1.04,11.65.19,16.79-2.38s9.41-6.86,11.97-12.01c.84-1.7,1.52-3.54,1.55-5.44s-.63-3.88-2.08-5.11-3.75-1.49-5.27-.34c-.81.61-1.33,1.54-2.04,2.28-2.36,2.47-6.3,2.46-9.65,1.79-1.58-.32-3.2-.77-4.41-1.83-.81-.71-1.4-1.66-2.31-2.22-1.78-1.1-4.24-.33-5.66,1.21s-1,4.08-1.51,6.11-1.99,3.7-3.21,5.4c-2.21,3.07-3.31,2.96-4.16,6.65-.33,1.42-.31,4.97.28,6.3,2,4.58,4.85,4.94,9.83,5.38s8.32-.29,12.98-2.07c2.27-.87,4.45-1.3,6.01-3.16,1.55-1.85,3.02-3.87,2.44-6.21"/>
  </g>
  <g id="Livello_10" data-name="Livello 10">
    <path class="cls-12" d="m84.13,254.56c.02-.21-.08.16.07-.26.17-.48-.12.22.02-.07.05-.1.1-.2.16-.29.33-.53.35-.56.88-1.06.9-.86,2.01-1.51,3.16-2.13,3.19-1.69,6.68-2.81,10.15-3.75,7.36-2.01,15.18-3.43,22.84-2.86,11.2.83,21.39,5.65,31.38,10.38s19.41,8.39,30.15,9.36c9.88.89,19.89.11,29.7-1.2s19.61-3.28,29.25-5.7c20.52-5.17,42.13-12.12,63.42-7.04,5.34,1.27,10.25,3.5,15.09,6.05s9.56,5.14,14.73,6.81c4.24,1.37,8.84,1.9,13.29,1.71,3.92-.17,8.16-.85,11.55-2.95,1.44-.89,2.69-2.06,3.56-3.53,1.24-2.08-2-3.97-3.24-1.89-1.76,2.96-5.85,3.93-9,4.37-4.19.59-8.6.33-12.72-.64-10.47-2.47-19.09-9.7-29.38-12.76-21.3-6.35-44.01-.16-64.75,5.35-9.46,2.52-19.05,4.57-28.73,6.04s-20.1,2.44-30.16,1.84c-4.8-.28-9.51-1.01-14.13-2.34-5.49-1.58-10.71-3.86-15.86-6.29-10.1-4.75-20.16-9.59-31.36-11.02-8.11-1.03-16.33.18-24.22,2.1-3.79.92-7.53,2.07-11.11,3.63-2.65,1.16-5.49,2.62-7.26,4.99-.71.95-1.1,1.99-1.2,3.17-.19,2.41,3.56,2.39,3.75,0h0Z"/>
    <path class="cls-12" d="m279.39,288.64c-19.86-7.31-41.38-14.58-62.7-9.31-16.7,4.13-31.23,14.58-48.44,16.95-11.95,1.64-24.19-.54-35.99-2.41-1.01-.16-2.01.26-2.31,1.31-.25.89.31,2.15,1.31,2.31,10.81,1.72,21.89,3.67,32.87,2.95,8.78-.58,17.12-3.08,25.2-6.46s15.43-7.07,23.52-9.64c10.01-3.19,20.42-3.67,30.8-2.15,11.99,1.76,23.42,5.91,34.74,10.08,2.27.84,3.25-2.79,1-3.62h0Z"/>
  </g>
  <g id="Livello_16" data-name="Livello 16">
    <g>
      <path class="cls-8" d="m240.75,72.15c7.24,6.19,16.12,10.05,24.86,13.83,7.56,3.27,15.65,6.61,23.78,5.3,8.09-1.3,14.7-6.96,20.85-12.39,4.45-3.93,9.23-8.5,9.62-14.43.29-4.5-2.15-8.85-5.5-11.87s-7.54-4.93-11.69-6.7c-17.3-7.37-35.3-13.1-53.67-17.1-6.87-1.5-15.21-2.3-19.83,3.01-2.89,3.32-3.15,7.81-2.31,11.93.57,2.82.85,5.69,1.4,8.51.52,2.67,1.5,4.67,2.62,7.06,2.33,4.95,5.73,9.28,9.88,12.84Z"/>
      <path class="cls-10" d="m239.43,73.48c6.6,5.59,14.34,9.37,22.21,12.81s16.82,7.8,25.92,7.09c8.35-.65,15.21-5.56,21.37-10.85,5.59-4.8,12.59-10.44,12.83-18.46.26-8.77-7.37-14.81-14.54-18.19-8.24-3.89-16.9-7.06-25.53-9.97s-17.65-5.51-26.65-7.65c-6.95-1.65-15.16-4.02-22.14-1.24-3.44,1.37-6.08,3.94-7.42,7.41-1.49,3.87-.75,7.76-.09,11.69.38,2.28.63,4.58,1.1,6.84.42,2,1.19,3.89,2.04,5.74,1.74,3.8,3.86,7.31,6.6,10.48,1.32,1.53,2.77,2.95,4.3,4.28,1.82,1.57,4.48-1.07,2.65-2.65-2.84-2.45-5.36-5.24-7.37-8.42s-3.77-6.62-4.56-10.21c-.46-2.09-.7-4.24-1.03-6.35-.29-1.84-.75-3.65-.8-5.52-.09-3.23.89-6.48,3.55-8.51,5.05-3.84,12.61-2.1,18.25-.85,8.33,1.86,16.58,4.08,24.71,6.64s16.17,5.48,24.06,8.72c6.75,2.78,14.94,5.79,18.14,12.95s-2.28,13.05-7.23,17.51c-5.33,4.8-11.08,10.02-18.12,12.06-8.05,2.33-16.23-.69-23.61-3.84s-14.68-6.24-21.29-10.66c-1.63-1.09-3.19-2.26-4.69-3.53-1.83-1.55-4.5,1.09-2.65,2.65Z"/>
    </g>
    <path class="cls-10" d="m303.36,58.6c-7.88.55-15.55-1.28-22.83-4.16-3.62-1.43-7-3.57-10.48-5.32-1.74-.87-3.44-1.83-5.17-2.71-1.81-.92-3.49-2.05-5.28-2.99-1.73-.91-3.61-1.54-5.35-2.43-1.77-.91-3.56-1.99-4.97-3.43-.45-.46-1.05.12-.83.64.34.8.77,1.56,1.18,2.33.43.8,1.08,1.35,1.69,2,1.23,1.31,2.56,2.46,3.96,3.6,1.66,1.36,3.44,2.4,5.29,3.48,1.82,1.06,3.58,2.19,5.42,3.22,3.72,2.07,7.61,3.76,11.7,4.97,1.98.59,3.93,1.27,5.93,1.79,2,.52,4.09.72,6.14,1,4.63.63,9.23.52,13.81-.39.9-.18.71-1.68-.22-1.61Z"/>
  </g>
</svg>