<?xml version="1.0" encoding="UTF-8"?>
<svg id="Livello_2" data-name="Livello 2" xmlns="http://www.w3.org/2000/svg" viewBox="0 0 401.33 473.01">
  <defs>
    <style>
      .cls-1 {
        letter-spacing: -.08em;
      }

      .cls-2 {
        letter-spacing: -.08em;
      }

      .cls-3 {
        letter-spacing: -.02em;
      }

      .cls-4 {
        fill: #99c1c0;
      }

      .cls-5 {
        letter-spacing: -.03em;
      }

      .cls-6 {
        letter-spacing: -.03em;
      }

      .cls-7 {
        letter-spacing: -.03em;
      }

      .cls-8 {
        letter-spacing: -.02em;
      }

      .cls-9, .cls-10, .cls-11, .cls-12, .cls-13, .cls-14, .cls-15 {
        font-family: Chaloops-Regular, Chaloops;
      }

      .cls-16 {
        letter-spacing: -.09em;
      }

      .cls-10 {
        letter-spacing: -.01em;
      }

      .cls-11 {
        letter-spacing: -.01em;
      }

      .cls-17 {
        letter-spacing: -.05em;
      }

      .cls-18 {
        letter-spacing: -.03em;
      }

      .cls-19 {
        letter-spacing: -.02em;
      }

      .cls-12 {
        letter-spacing: 0em;
      }

      .cls-20 {
        letter-spacing: -.04em;
      }

      .cls-21 {
        letter-spacing: -.02em;
      }

      .cls-22 {
        fill: #e94e1b;
        font-size: 72px;
        opacity: .9;
      }

      .cls-22, .cls-23, .cls-24, .cls-25 {
        font-family: MOONBLOSSOM, MOONBLOSSOM;
      }

      .cls-26 {
        letter-spacing: -.03em;
      }

      .cls-27 {
        letter-spacing: -.03em;
      }

      .cls-13 {
        letter-spacing: -.04em;
      }

      .cls-23, .cls-24, .cls-28 {
        font-size: 30px;
      }

      .cls-23, .cls-25, .cls-28, .cls-14 {
        fill: #155e60;
      }

      .cls-24 {
        fill: #145e60;
      }

      .cls-25 {
        font-size: 38px;
      }

      .cls-29 {
        fill: #23aabc;
        font-family: ModernLove-Regular, 'Modern Love';
        font-size: 103px;
      }

      .cls-14 {
        font-size: 23px;
      }

      .cls-30 {
        font-family: NotoSansSaurashtra-Regular, 'Noto Sans Saurashtra';
      }

      .cls-31 {
        letter-spacing: -.07em;
      }

      .cls-15 {
        letter-spacing: -.03em;
      }
    </style>
  </defs>
  <g id="Livello_2_copia" data-name="Livello 2 copia">
    <g>
      <text class="cls-29" transform="translate(77.84 92.7)"><tspan x="0" y="0">Enea</tspan></text>
      <text class="cls-28" transform="translate(2.82 143.9)"><tspan class="cls-9" x="0" y="0">è </tspan><tspan class="cls-15" x="21.75" y="0">f</tspan><tspan class="cls-9" x="32.55" y="0">el</tspan><tspan class="cls-10" x="53.7" y="0">i</tspan><tspan class="cls-9" x="61.08" y="0">ce</tspan><tspan class="cls-30" x="87.57" y="0"> </tspan><tspan class="cls-9" x="96.15" y="0">di</tspan><tspan class="cls-30" x="118.77" y="0"> </tspan><tspan class="cls-9" x="127.35" y="0">invi</tspan><tspan class="cls-13" x="172.41" y="0">t</tspan><tspan class="cls-9" x="183.36" y="0">arvi</tspan><tspan class="cls-30" x="232.65" y="0"> </tspan><tspan class="cls-11" x="241.23" y="0">a</tspan><tspan class="cls-12" x="254.73" y="0">l</tspan><tspan class="cls-30" x="262.02" y="0"> </tspan><tspan class="cls-9" x="270.6" y="0">suo</tspan><tspan class="cls-30" x="310.14" y="0"> </tspan><tspan class="cls-9" x="318.72" y="0">primo</tspan><tspan class="cls-30" x="389.93" y="0"> </tspan><tspan class="cls-9"><tspan class="cls-18" x="125.76" y="36">c</tspan><tspan class="cls-6" x="137.64" y="36">o</tspan><tspan x="150.6" y="36">mpl</tspan><tspan class="cls-8" x="195.3" y="36">e</tspan><tspan x="208.62" y="36">anno</tspan></tspan></text>
    </g>
    <text class="cls-24" transform="translate(19.5 353.59)"><tspan class="cls-21" x="0" y="0">agriturismo La Reginell</tspan><tspan class="cls-1" x="335.57" y="0">a</tspan><tspan class="cls-21" x="350.57" y="0">,</tspan><tspan class="cls-21" x="14.38" y="34" xml:space="preserve"> strada provinciale </tspan><tspan class="cls-17" x="298.99" y="34">3</tspan><tspan class="cls-21" x="312.07" y="34">4, </tspan><tspan class="cls-21"><tspan x="120.39" y="68">Cicciano</tspan></tspan></text>
    <text class="cls-14" transform="translate(50.76 462.39)"><tspan x="0" y="0">Dare </tspan><tspan class="cls-19" x="47.22" y="0">c</tspan><tspan class="cls-7" x="56.33" y="0">o</tspan><tspan x="66.26" y="0">n</tspan><tspan class="cls-5" x="77.07" y="0">f</tspan><tspan x="85.35" y="0">erma a mamma e </tspan><tspan class="cls-7" x="252.15" y="0">p</tspan><tspan x="262.54" y="0">a</tspan><tspan class="cls-7" x="273.14" y="0">p</tspan><tspan x="283.54" y="0">à</tspan></text>
    <g>
      <text class="cls-23" transform="translate(135.07 306.01)"><tspan x="0" y="0">Ore </tspan><tspan class="cls-26" x="64.59" y="0">1</tspan><tspan x="70.62" y="0">8:</tspan><tspan class="cls-31" x="92.82" y="0">3</tspan><tspan x="105.39" y="0">0</tspan></text>
      <g>
        <text class="cls-25" transform="translate(34.57 251.51)"><tspan x="0" y="0">Sab</tspan><tspan class="cls-16" x="63.73" y="0">a</tspan><tspan x="82.15" y="0">to </tspan></text>
        <text class="cls-23" transform="translate(254.34 233.07)"><tspan x="0" y="0">Luglio </tspan><tspan class="cls-2" x="12.96" y="36">2</tspan><tspan class="cls-27" x="27.15" y="36">0</tspan><tspan class="cls-20" x="46.32" y="36">2</tspan><tspan x="61.65" y="36">3</tspan></text>
        <text class="cls-22" transform="translate(182.27 262.65)"><tspan class="cls-3" x="0" y="0">1</tspan><tspan x="15.12" y="0">5</tspan></text>
        <path class="cls-4" d="m168.9,208.63c.33,18.72.66,37.43.99,56.15.04,2.41,3.79,2.42,3.75,0-.33-18.72-.66-37.43-.99-56.15-.04-2.41-3.79-2.42-3.75,0h0Z"/>
        <path class="cls-4" d="m235.82,215.56c.54,15.54,1.08,31.09,1.62,46.63.08,2.41,3.83,2.42,3.75,0-.54-15.54-1.08-31.09-1.62-46.63-.08-2.41-3.83-2.42-3.75,0h0Z"/>
      </g>
    </g>
  </g>
</svg>